<svg width="22" height="20" viewBox="0 0 22 20" fill="none" xmlns="http://www.w3.org/2000/svg">
<path d="M5 10C5 9.58579 5.33579 9.25 5.75 9.25H11.75C12.1642 9.25 12.5 9.58579 12.5 10C12.5 10.4142 12.1642 10.75 11.75 10.75H5.75C5.33579 10.75 5 10.4142 5 10Z" fill="#2F0D0C"/>
<path d="M5.75 5.25C5.33579 5.25 5 5.58579 5 6C5 6.41421 5.33579 6.75 5.75 6.75H8.25C8.66421 6.75 9 6.41421 9 6C9 5.58579 8.66421 5.25 8.25 5.25H5.75Z" fill="#2F0D0C"/>
<path fill-rule="evenodd" clip-rule="evenodd" d="M0 4.25C0 1.90279 1.90279 0 4.25 0H17.25C19.5972 0 21.5 1.90279 21.5 4.25V12.25C21.5 14.5972 19.5972 16.5 17.25 16.5H11.4749C11.2097 16.5 10.9553 16.6054 10.7678 16.7929L8.26219 19.2985C6.99147 20.5692 4.81733 19.9109 4.4649 18.1487L4.24263 17.0374C4.18013 16.7249 3.90576 16.5 3.58708 16.5C1.60599 16.5 0 14.894 0 12.9129V4.25ZM4.25 1.5C2.73122 1.5 1.5 2.73122 1.5 4.25V12.9129C1.5 14.0656 2.43442 15 3.58708 15C4.62078 15 5.51078 15.7296 5.7135 16.7433L5.93577 17.8546C6.05324 18.442 6.77796 18.6614 7.20153 18.2378L9.70711 15.7322C10.1759 15.2634 10.8118 15 11.4749 15H17.25C18.7688 15 20 13.7688 20 12.25V4.25C20 2.73122 18.7688 1.5 17.25 1.5H4.25Z" fill="#2F0D0C"/>
</svg>
