<svg width="19" height="20" viewBox="0 0 19 20" fill="none" xmlns="http://www.w3.org/2000/svg">
<path d="M1.5 4.25073C1.5 2.58427 2.97038 1.30079 4.62156 1.52595L8.62156 2.07141C9.98415 2.25721 11 3.42099 11 4.79619V6.35011C11 6.76432 11.3358 7.10011 11.75 7.10011C12.1642 7.10011 12.5 6.76432 12.5 6.35011V4.79619C12.5 2.67089 10.93 0.872317 8.82423 0.58516L4.82423 0.0397057C2.27241 -0.30827 0 1.67529 0 4.25073V15.4545C0 18.331 2.7976 20.3766 5.53862 19.5045L9.53862 18.2317C11.3023 17.6706 12.5 16.0326 12.5 14.1818V13.3501C12.5 12.9359 12.1642 12.6001 11.75 12.6001C11.3358 12.6001 11 12.9359 11 13.3501V14.1818C11 15.3794 10.225 16.4392 9.08381 16.8024L5.08381 18.0751C3.31021 18.6394 1.5 17.3157 1.5 15.4545V4.25073Z" fill="#190D03"/>
<path d="M14.1752 6.36835C14.4413 6.05089 14.9143 6.00924 15.2318 6.27531L17.8678 8.48465C18.7108 9.19113 18.7108 10.5084 17.8678 11.2149L15.2319 13.4249C14.9144 13.691 14.4414 13.6494 14.1753 13.332C13.9092 13.0145 13.9508 12.5415 14.2682 12.2754L16.2664 10.6001H6.25C5.83579 10.6001 5.5 10.2643 5.5 9.8501C5.5 9.43588 5.83579 9.1001 6.25 9.1001H16.267L14.2683 7.42492C13.9508 7.15885 13.9091 6.68581 14.1752 6.36835Z" fill="#190D03"/>
</svg>
