<svg width="18" height="18" viewBox="0 0 18 18" fill="none" xmlns="http://www.w3.org/2000/svg">
<path d="M10.6381 2.41293L11.3796 1.67142C12.6081 0.442859 14.6 0.442859 15.8286 1.67142C17.0571 2.89999 17.0571 4.89188 15.8286 6.12044L15.0871 6.86195M10.6381 2.41293C10.6381 2.41293 10.7307 3.98862 12.1211 5.37894C13.5114 6.76926 15.0871 6.86195 15.0871 6.86195M10.6381 2.41293L3.82106 9.22992C3.35933 9.69165 3.12846 9.92251 2.92992 10.1771C2.69571 10.4773 2.49491 10.8022 2.33107 11.146C2.19219 11.4374 2.08894 11.7472 1.88245 12.3667L1.00745 14.9917M15.0871 6.86195L8.27008 13.6789C7.80835 14.1407 7.57749 14.3715 7.32293 14.5701C7.02265 14.8043 6.69775 15.0051 6.35398 15.1689C6.06256 15.3078 5.75282 15.4111 5.13334 15.6175L2.50834 16.4926M2.50834 16.4926L1.86667 16.7064C1.56182 16.8081 1.22573 16.7287 0.998505 16.5015C0.771284 16.2743 0.691942 15.9382 0.793559 15.6333L1.00745 14.9917M2.50834 16.4926L1.00745 14.9917" stroke="#130505" stroke-width="1.5"/>
</svg>
