<svg width="20" height="20" viewBox="0 0 20 20" fill="none" xmlns="http://www.w3.org/2000/svg">
<path fill-rule="evenodd" clip-rule="evenodd" d="M9.99631 0C6.3161 0 3.24631 2.81847 3.24631 6.39153V7.44723C3.24631 8.47466 2.94219 9.4791 2.37227 10.334C2.36223 10.349 2.35273 10.3645 2.3438 10.3802L1.96516 11.0484C1.47504 11.9133 1.31535 12.9251 1.51104 13.8979C1.52568 13.9707 1.54944 14.0722 1.58761 14.1948C2.05095 15.6832 3.49726 16.4486 4.6862 16.8067C5.04153 16.9137 5.41876 17.0081 5.81275 17.0898L5.86402 17.1717C6.95839 18.9184 8.43099 19.95 10.0469 19.95C11.6628 19.95 13.1354 18.9184 14.2297 17.1717L14.2965 17.0652C14.6504 16.9888 14.9902 16.9021 15.312 16.805C16.5165 16.4416 17.9056 15.6622 18.3884 14.2056C18.4065 14.1508 18.4216 14.1022 18.4331 14.065C18.4461 14.0231 18.4517 14.0051 18.4556 13.9936C18.4663 13.9626 18.4749 13.9309 18.4814 13.8988C18.6785 12.925 18.5173 11.9128 18.0275 11.0484L17.6488 10.3802C17.6399 10.3645 17.6304 10.349 17.6203 10.334C17.0504 9.4791 16.7463 8.47466 16.7463 7.44723V6.39153C16.7463 2.81847 13.6765 0 9.99631 0ZM12.1849 17.3852C10.7934 17.5181 9.31472 17.5215 7.91872 17.3955C8.63412 18.1392 9.37848 18.45 10.0469 18.45C10.7184 18.45 11.4665 18.1363 12.1849 17.3852ZM4.74631 6.39153C4.74631 3.73312 7.05559 1.5 9.99631 1.5C12.937 1.5 15.2463 3.73312 15.2463 6.39153V7.44723C15.2463 8.76147 15.6326 10.0465 16.3568 11.1427L16.7224 11.7879C17.0273 12.326 17.1321 12.954 17.019 13.5611L17.0028 13.613L17.0002 13.6214C16.9889 13.6579 16.9776 13.6942 16.9645 13.7336C16.712 14.4955 15.9118 15.0573 14.8787 15.3689C12.1467 16.1932 7.85285 16.1937 5.11871 15.3704C4.06292 15.0524 3.2533 14.499 3.01981 13.7489C2.99901 13.6821 2.98746 13.6313 2.98158 13.6021C2.8567 12.9813 2.95889 12.3373 3.27019 11.7879L3.63583 11.1427C4.36004 10.0465 4.74631 8.76146 4.74631 7.44723V6.39153Z" fill="#190D03"/>
<path d="M18.3837 6.0012C18.7973 6.02461 19.1135 6.37884 19.0901 6.79239C19.0561 7.39315 19.0742 7.80993 19.1704 8.16793C19.2622 8.50966 19.4385 8.84563 19.8003 9.24991C20.0765 9.5586 20.0501 10.0327 19.7414 10.3089C19.4327 10.5851 18.9586 10.5588 18.6824 10.2501C18.1941 9.70437 17.8851 9.16535 17.7217 8.55707C17.5627 7.96508 17.5558 7.35685 17.5925 6.70761C17.6159 6.29406 17.9702 5.97779 18.3837 6.0012Z" fill="#190D03"/>
<path d="M2.39881 6.70761C2.3754 6.29406 2.02117 5.97779 1.60762 6.0012C1.19407 6.02461 0.877799 6.37884 0.901209 6.79239C0.935217 7.39315 0.91714 7.80993 0.820971 8.16793C0.729177 8.50966 0.552794 8.84563 0.191076 9.24991C-0.0851193 9.5586 -0.058778 10.0327 0.249911 10.3089C0.5586 10.5851 1.03274 10.5588 1.30894 10.2501C1.79722 9.70437 2.10622 9.16535 2.26962 8.55707C2.42864 7.96508 2.43556 7.35685 2.39881 6.70761Z" fill="#190D03"/>
</svg>
