<svg width="19" height="21" viewBox="0 0 19 21" fill="none" xmlns="http://www.w3.org/2000/svg">
<path fill-rule="evenodd" clip-rule="evenodd" d="M7.78923 0C5.16588 0 3.03923 2.12665 3.03923 4.75C3.03923 7.37335 5.16588 9.5 7.78923 9.5C10.4126 9.5 12.5392 7.37335 12.5392 4.75C12.5392 2.12665 10.4126 0 7.78923 0ZM4.53923 4.75C4.53923 2.95507 5.99431 1.5 7.78923 1.5C9.58416 1.5 11.0392 2.95507 11.0392 4.75C11.0392 6.54493 9.58416 8 7.78923 8C5.99431 8 4.53923 6.54493 4.53923 4.75Z" fill="#2F0D0C"/>
<path d="M2.5676 13.6091C2.97188 12.9219 3.70961 12.5 4.50687 12.5H10.2912C10.7054 12.5 11.0412 12.1642 11.0412 11.75C11.0412 11.3358 10.7054 11 10.2912 11H4.50687C3.1781 11 1.94855 11.7032 1.27476 12.8484L0.612985 13.9733C0.0906677 14.861 -0.133386 15.8978 0.0805198 16.8298C0.303773 17.8025 0.995417 18.5951 2.12733 18.8875C3.99378 19.3697 6.47351 19.5618 8.81645 19.4828C9.23043 19.4688 9.55471 19.1219 9.54076 18.708C9.5268 18.294 9.17989 17.9697 8.76592 17.9836C6.51414 18.0596 4.18715 17.8704 2.50251 17.4352C1.92695 17.2865 1.64371 16.9352 1.54251 16.4943C1.43196 16.0126 1.53389 15.3661 1.90583 14.7339L2.5676 13.6091Z" fill="#2F0D0C"/>
<path fill-rule="evenodd" clip-rule="evenodd" d="M16.9179 18.068C17.3106 17.4752 17.5392 16.7643 17.5392 16C17.5392 13.9289 15.8603 12.25 13.7892 12.25C11.7182 12.25 10.0392 13.9289 10.0392 16C10.0392 18.0711 11.7182 19.75 13.7892 19.75C14.5535 19.75 15.2644 19.5213 15.8573 19.1287L16.7593 20.0307C17.0521 20.3236 17.527 20.3236 17.8199 20.0307C18.1128 19.7378 18.1128 19.2629 17.8199 18.97L16.9179 18.068ZM11.5392 16C11.5392 14.7574 12.5466 13.75 13.7892 13.75C15.0319 13.75 16.0392 14.7574 16.0392 16C16.0392 17.2426 15.0319 18.25 13.7892 18.25C12.5466 18.25 11.5392 17.2426 11.5392 16Z" fill="#2F0D0C"/>
</svg>
